<svg id="user" xmlns="http://www.w3.org/2000/svg" width="15.953" height="21.27" viewBox="0 0 15.953 21.27">
  <path id="Path_81" data-name="Path 81" d="M11.318,10.635A5.318,5.318,0,1,0,6,5.318a5.318,5.318,0,0,0,5.318,5.318Zm0-8.863A3.545,3.545,0,1,1,7.773,5.318,3.545,3.545,0,0,1,11.318,1.773Z" transform="translate(-3.341)" fill="#fff"/>
  <path id="Path_82" data-name="Path 82" d="M10.976,14A7.985,7.985,0,0,0,3,21.976a.886.886,0,1,0,1.773,0,6.2,6.2,0,0,1,12.408,0,.886.886,0,0,0,1.773,0A7.985,7.985,0,0,0,10.976,14Z" transform="translate(-3 -1.592)" fill="#fff"/>
</svg>
