<svg xmlns="http://www.w3.org/2000/svg" width="21.27" height="21.27" viewBox="0 0 21.27 21.27">
  <path id="users_1_" data-name="users (1)" d="M6.647,11.521a3.988,3.988,0,1,1,3.988-3.988,3.988,3.988,0,0,1-3.988,3.988Zm0-6.2A2.216,2.216,0,1,0,8.863,7.533,2.216,2.216,0,0,0,6.647,5.318Zm6.647,15.067v-.443A6.647,6.647,0,0,0,0,19.941v.443a.886.886,0,0,0,1.773,0v-.443a4.874,4.874,0,0,1,9.749,0v.443a.886.886,0,1,0,1.773,0Zm7.976-4.431a6.2,6.2,0,0,0-10.34-4.624.886.886,0,1,0,1.182,1.321,4.431,4.431,0,0,1,7.385,3.3.886.886,0,0,0,1.773,0ZM15.51,7.976A3.988,3.988,0,1,1,19.5,3.988,3.988,3.988,0,0,1,15.51,7.976Zm0-6.2a2.216,2.216,0,1,0,2.216,2.216A2.216,2.216,0,0,0,15.51,1.773Z" fill="#fff"/>
</svg>
