<svg id="Group_471" data-name="Group 471" xmlns="http://www.w3.org/2000/svg" width="60" height="60" viewBox="0 0 60 60">
  <circle id="Ellipse_19" data-name="Ellipse 19" cx="30" cy="30" r="30" fill="#fba30d" opacity="0.11"/>
  <path id="users_1_" data-name="users (1)" d="M8.059,13.968a4.835,4.835,0,1,1,4.835-4.835A4.835,4.835,0,0,1,8.059,13.968Zm0-7.521a2.686,2.686,0,1,0,2.686,2.686A2.686,2.686,0,0,0,8.059,6.447Zm8.059,18.266v-.537A8.059,8.059,0,0,0,0,24.176v.537a1.074,1.074,0,0,0,2.149,0v-.537a5.91,5.91,0,1,1,11.819,0v.537a1.074,1.074,0,1,0,2.149,0Zm9.67-5.372a7.521,7.521,0,0,0-12.536-5.606,1.074,1.074,0,1,0,1.433,1.6,5.372,5.372,0,0,1,8.954,4,1.074,1.074,0,0,0,2.149,0ZM18.8,9.67a4.835,4.835,0,1,1,4.835-4.835A4.835,4.835,0,0,1,18.8,9.67Zm0-7.521A2.686,2.686,0,1,0,21.49,4.835,2.686,2.686,0,0,0,18.8,2.149Z" transform="translate(17.359 17.359)" fill="#fba30d"/>
</svg>
