<svg id="Component_44_1" data-name="Component 44 – 1" xmlns="http://www.w3.org/2000/svg" width="60" height="60" viewBox="0 0 60 60">
  <circle id="Ellipse_19" data-name="Ellipse 19" cx="30" cy="30" r="30" fill="#fba30d" opacity="0.11"/>
  <path id="Icon_awesome-shipping-fast" data-name="Icon awesome-shipping-fast" d="M28.583,16.124H27.85V11.172A2.2,2.2,0,0,0,27.2,9.619L22.628,5.043A2.2,2.2,0,0,0,21.075,4.4h-2.02V2.2a2.2,2.2,0,0,0-2.2-2.2H5.13a2.2,2.2,0,0,0-2.2,2.2V4.4H.366A.368.368,0,0,0,0,4.764V5.5a.368.368,0,0,0,.366.366H12.826a.368.368,0,0,1,.366.366v.733a.368.368,0,0,1-.366.366H1.832a.368.368,0,0,0-.366.366v.733a.368.368,0,0,0,.366.366H11.36a.368.368,0,0,1,.366.366v.733a.368.368,0,0,1-.366.366H.366A.368.368,0,0,0,0,10.627v.733a.368.368,0,0,0,.366.366H9.894a.368.368,0,0,1,.366.366v.733a.368.368,0,0,1-.366.366H2.932v5.863a4.4,4.4,0,1,0,8.795,0h5.863a4.4,4.4,0,1,0,8.795,0h2.2a.735.735,0,0,0,.733-.733V16.857A.735.735,0,0,0,28.583,16.124ZM7.329,21.254a2.2,2.2,0,1,1,2.2-2.2A2.2,2.2,0,0,1,7.329,21.254Zm14.658,0a2.2,2.2,0,1,1,2.2-2.2A2.2,2.2,0,0,1,21.987,21.254Zm3.664-9.528h-6.6V6.6h2.02l4.576,4.576Z" transform="translate(15.232 18.24)" fill="#fba30d"/>
</svg>
