<svg id="apps" xmlns="http://www.w3.org/2000/svg" width="21.122" height="21.122" viewBox="0 0 21.122 21.122">
  <path id="Path_85" data-name="Path 85" d="M6.16,0H3.52A3.52,3.52,0,0,0,0,3.52V6.16a3.52,3.52,0,0,0,3.52,3.52H6.16a3.52,3.52,0,0,0,3.52-3.52V3.52A3.52,3.52,0,0,0,6.16,0Zm1.76,6.16a1.76,1.76,0,0,1-1.76,1.76H3.52A1.76,1.76,0,0,1,1.76,6.16V3.52A1.76,1.76,0,0,1,3.52,1.76H6.16a1.76,1.76,0,0,1,1.76,1.76Z" fill="#fff"/>
  <path id="Path_86" data-name="Path 86" d="M19.16,0H16.52A3.52,3.52,0,0,0,13,3.52V6.16a3.52,3.52,0,0,0,3.52,3.52h2.64a3.52,3.52,0,0,0,3.52-3.52V3.52A3.52,3.52,0,0,0,19.16,0Zm1.76,6.16a1.76,1.76,0,0,1-1.76,1.76H16.52a1.76,1.76,0,0,1-1.76-1.76V3.52a1.76,1.76,0,0,1,1.76-1.76h2.64a1.76,1.76,0,0,1,1.76,1.76Z" transform="translate(-1.559)" fill="#fff"/>
  <path id="Path_87" data-name="Path 87" d="M6.16,13H3.52A3.52,3.52,0,0,0,0,16.52v2.64a3.52,3.52,0,0,0,3.52,3.52H6.16a3.52,3.52,0,0,0,3.52-3.52V16.52A3.52,3.52,0,0,0,6.16,13Zm1.76,6.16a1.76,1.76,0,0,1-1.76,1.76H3.52a1.76,1.76,0,0,1-1.76-1.76V16.52a1.76,1.76,0,0,1,1.76-1.76H6.16a1.76,1.76,0,0,1,1.76,1.76Z" transform="translate(0 -1.559)" fill="#fff"/>
  <path id="Path_88" data-name="Path 88" d="M19.16,13H16.52A3.52,3.52,0,0,0,13,16.52v2.64a3.52,3.52,0,0,0,3.52,3.52h2.64a3.52,3.52,0,0,0,3.52-3.52V16.52A3.52,3.52,0,0,0,19.16,13Zm1.76,6.16a1.76,1.76,0,0,1-1.76,1.76H16.52a1.76,1.76,0,0,1-1.76-1.76V16.52a1.76,1.76,0,0,1,1.76-1.76h2.64a1.76,1.76,0,0,1,1.76,1.76Z" transform="translate(-1.559 -1.559)" fill="#fff"/>
</svg>
