<svg xmlns="http://www.w3.org/2000/svg" width="17.731" height="22.776" viewBox="0 0 17.731 22.776">
  <g id="Group_24" data-name="Group 24" transform="translate(-286 -96)">
    <path id="bell" d="M18.568,11.354,17.019,5.673A7.617,7.617,0,0,0,9.5,0,7.637,7.637,0,0,0,2.282,6.067l-1.2,5.5a4.217,4.217,0,0,0,.8,3.5,4.047,4.047,0,0,0,3.179,1.555H5.97a4.061,4.061,0,0,0,7.988,0h.683a4.049,4.049,0,0,0,3.245-1.641,4.22,4.22,0,0,0,.682-3.626Zm-8.6,6.929a2.449,2.449,0,0,1-2.3-1.662h4.591a2.449,2.449,0,0,1-2.3,1.662Zm6.624-4.309a2.411,2.411,0,0,1-1.947.985H5.062a2.428,2.428,0,0,1-1.907-.933,2.53,2.53,0,0,1-.48-2.1l1.2-5.5a5.941,5.941,0,0,1,11.575-.309L17,11.8a2.513,2.513,0,0,1-.409,2.176Z" transform="translate(285.014 98.826)" fill="#2a2e33"/>
    <circle id="Ellipse_3" data-name="Ellipse 3" cx="4.433" cy="4.433" r="4.433" transform="translate(293.758 96)" fill="#fba30d"/>
  </g>
</svg>
