<svg id="Component_45_1" data-name="Component 45 – 1" xmlns="http://www.w3.org/2000/svg" width="60" height="60" viewBox="0 0 60 60">
  <circle id="Ellipse_19" data-name="Ellipse 19" cx="30" cy="30" r="30" fill="#fba30d" opacity="0.11"/>
  <g id="Icon" transform="translate(11.459 13.591)">
    <path id="Color_Overlay" data-name="Color Overlay" d="M0,26.008a7,7,0,1,1,7,7A7,7,0,0,1,0,26.008Zm2.928-.134A1.077,1.077,0,0,0,3.1,27.388l2.692,2.154a1.077,1.077,0,0,0,1.477-.125l4.307-4.848a1.077,1.077,0,1,0-1.609-1.432L6.335,27.221,4.442,25.705a1.076,1.076,0,0,0-1.514.169Zm16.615,5.618-4.676-2a8.547,8.547,0,0,0,.743-3.484,8.6,8.6,0,0,0-11.241-8.2L4.348,9.082A3.511,3.511,0,0,1,6.261,6.129L19.5.24a3.689,3.689,0,0,1,2.618,0L27.5,2.632,11.488,10.161V15l2.793,1.242V11.4L30.29,3.874l5.071,2.255a3.51,3.51,0,0,1,1.913,2.953l-.033,13.806a3.5,3.5,0,0,1-1.955,2.955L22.075,31.492a3.7,3.7,0,0,1-2.532,0ZM35.329,21.421l-12.31,5.245a.344.344,0,0,0-.2.289l.009.6c0,.111.1.161.211.113L35.323,22.5a.4.4,0,0,0,.24-.317l0-.651a.128.128,0,0,0-.137-.138A.268.268,0,0,0,35.329,21.421Zm-10.56,3.106c0,.225.2.325.432.224l1.076-.465a.726.726,0,0,0,.431-.6l-.046-5.223.718-.333c.342-.159.554-.612.38-.815l-1.738-2.036c-.172-.2-.592,0-.757.366l-1.631,3.6c-.159.352.05.6.377.449l.7-.323Zm6.633-2.88c0,.235.206.337.46.228l1.16-.5a.786.786,0,0,0,.47-.634l.016-5.454.775-.36c.369-.171.6-.649.418-.859l-1.841-2.1c-.182-.207-.636.013-.817.4l-1.794,3.787c-.175.37.046.627.4.462l.751-.348Z" fill="#fba30d"/>
  </g>
</svg>
