<svg id="settings" class="icon-svg" xmlns="http://www.w3.org/2000/svg" width="20.789" height="23.105" viewBox="0 0 20.789 23.105" fill="#fff">
  <path id="Path_83" data-name="Path 83" d="M11.851,8A3.851,3.851,0,1,0,15.7,11.851,3.851,3.851,0,0,0,11.851,8Zm0,5.776a1.925,1.925,0,1,1,1.925-1.925A1.925,1.925,0,0,1,11.851,13.776Z" transform="translate(-1.456 -0.298)" />
  <path id="Path_84" data-name="Path 84" d="M20.545,13.382l-.427-.246a8.761,8.761,0,0,0,0-3.167l.427-.246a2.89,2.89,0,1,0-2.888-5.006l-.428.247a8.642,8.642,0,0,0-2.743-1.581V2.888a2.888,2.888,0,1,0-5.776,0v.494A8.642,8.642,0,0,0,5.967,4.967l-.43-.249A2.89,2.89,0,1,0,2.649,9.723l.427.246a8.761,8.761,0,0,0,0,3.167l-.427.246A2.89,2.89,0,0,0,5.537,18.39l.428-.247a8.642,8.642,0,0,0,2.744,1.581v.494a2.888,2.888,0,0,0,5.776,0v-.494a8.642,8.642,0,0,0,2.742-1.585l.43.248a2.89,2.89,0,1,0,2.888-5.006ZM18.092,9.747a6.785,6.785,0,0,1,0,3.61.963.963,0,0,0,.447,1.091l1.044.6a.963.963,0,1,1-.963,1.668l-1.046-.6a.963.963,0,0,0-1.17.159,6.724,6.724,0,0,1-3.122,1.805.963.963,0,0,0-.723.933v1.206a.963.963,0,0,1-1.925,0V19.012a.963.963,0,0,0-.723-.933A6.724,6.724,0,0,1,6.79,16.27a.963.963,0,0,0-1.17-.159l-1.044.6a.963.963,0,1,1-.963-1.667l1.044-.6A.963.963,0,0,0,5.1,13.354a6.785,6.785,0,0,1,0-3.61.963.963,0,0,0-.448-1.087l-1.044-.6a.963.963,0,1,1,.963-1.668l1.046.6A.963.963,0,0,0,6.79,6.835,6.724,6.724,0,0,1,9.912,5.03a.963.963,0,0,0,.723-.937V2.888a.963.963,0,0,1,1.925,0V4.093a.963.963,0,0,0,.723.933,6.724,6.724,0,0,1,3.122,1.809.963.963,0,0,0,1.17.159l1.044-.6a.963.963,0,1,1,.963,1.667l-1.044.6a.963.963,0,0,0-.446,1.087Z" transform="translate(-1.203)" />
</svg>
