<svg xmlns="http://www.w3.org/2000/svg" width="110.488" height="63.525" viewBox="0 0 110.488 63.525">
  <g id="Group_673" data-name="Group 673" transform="translate(-1749.902 -50.9)">
    <g id="Group_671" data-name="Group 671">
      <g id="Group_1" data-name="Group 1" transform="translate(1773.536 50.9)">
        <path id="Path_41" data-name="Path 41" d="M98.764-177.238a11.642,11.642,0,0,0-7.522,8.787c-.171,1.2-.1,1.47.479,1.778a5.223,5.223,0,0,0,3.316.171,4.016,4.016,0,0,0,1.2-1.47,7.8,7.8,0,0,1,3.829-3.59,9.823,9.823,0,0,1,6.633.1c1.368.615,3.556,2.872,3.556,3.692,0,.684,1.47,1.47,2.8,1.47,1.573,0,2.393-.752,2.12-1.983-.923-4.24-2.667-6.6-6.12-8.308A14.613,14.613,0,0,0,98.764-177.238Z" transform="translate(-71.618 177.881)" fill="#fba30d"/>
        <path id="Path_42" data-name="Path 42" d="M42.718-138.46C37.18-136.99,34-132.75,34-126.8c.034,7.693,5.334,12.65,12.958,12.069,3.829-.274,5.675-1.06,7.932-3.282,2.222-2.257,2.974-4.034,3.351-8.171.239-2.393.444-3.043,1.3-4.069,4.171-5.163,13.436-2.735,13.436,3.487,0,4.479-5.265,7.522-10.018,5.846l-1.3-.479-1.026,2.086a17.574,17.574,0,0,1-1.368,2.5c-.479.581.308,1.06,2.8,1.709A13.671,13.671,0,0,0,73.8-117.365l1.641-1.368,1.47,1.3a11.784,11.784,0,0,0,7.282,2.7c6.12.479,11.043-2.667,12.616-8.069a17.216,17.216,0,0,0-.513-9.334c-2.564-5.812-10.086-8.342-16.65-5.607l-1.2.513,1.3,2.427c1.162,2.188,1.333,2.393,2.12,2.222a13.815,13.815,0,0,1,5.983-.171,8.561,8.561,0,0,1,4.137,3.453,6.694,6.694,0,0,1,0,4.889c-2.051,4.957-10.941,5.231-13.471.376a16.42,16.42,0,0,1-.821-3.932,14.242,14.242,0,0,0-1.128-4.684c-2.257-4.581-7.9-7.043-13.573-5.949-5.71,1.128-8.821,4.752-9.47,11.077a12.2,12.2,0,0,1-.855,3.8c-1.983,3.043-6.8,4.1-10.394,2.291-5.265-2.7-4.342-9.676,1.5-11.317a12.787,12.787,0,0,1,5.778.171c.615.171.889-.171,1.949-2.222l1.265-2.462-1.573-.684A16.755,16.755,0,0,0,42.718-138.46Z" transform="translate(-34 152.197)" fill="#fff"/>
      </g>
      <g id="Group_2" data-name="Group 2" transform="translate(1626.157 -844.084)">
        <path id="Path_43" data-name="Path 43" d="M10-47.809c0,1.048.191,1.191,1.667,1.191h1.667v9.051h2.858v-9.051H17.86c1.477,0,1.667-.143,1.667-1.191V-49H10Z" transform="translate(113.745 996.076)" fill="#fff"/>
        <path id="Path_44" data-name="Path 44" d="M33.381-48.651c-.238.191-.381,2.763-.381,5.764V-37.5h1.429c1.334,0,1.429-.143,1.429-1.667,0-1.429.143-1.667,1.143-1.667.81,0,1.477.524,2.191,1.667.81,1.286,1.334,1.667,2.43,1.667,1.524,0,1.477-.381-.191-2.572-.572-.762-.524-1,.476-2a3.751,3.751,0,0,0-.048-5.288c-1-1.191-1.524-1.334-4.621-1.477A11.912,11.912,0,0,0,33.381-48.651Zm6.669,3.716c.191,1.62-.476,2.191-2.62,2.191-1.524,0-1.572-.048-1.572-1.953V-46.6l2.048.143C39.717-46.316,39.908-46.173,40.05-44.935Z" transform="translate(101.702 996.012)" fill="#fff"/>
        <path id="Path_45" data-name="Path 45" d="M58.333-48.667A26.485,26.485,0,0,0,58-42.95v5.383h2.858v-5.717c0-5.669,0-5.717-1.1-5.717A2.391,2.391,0,0,0,58.333-48.667Z" transform="translate(88.612 996.076)" fill="#fff"/>
        <path id="Path_46" data-name="Path 46" d="M69.381-48.651c-.238.191-.381,2.763-.381,5.764V-37.5h1.429c1.334,0,1.429-.143,1.429-1.667v-1.667H74.24c3,0,4.764-1.429,4.764-3.954,0-2.668-1.715-3.859-5.859-4.049A11.352,11.352,0,0,0,69.381-48.651Zm6.669,3.716c.191,1.62-.476,2.191-2.62,2.191-1.524,0-1.572-.048-1.572-1.953V-46.6l2.048.143C75.717-46.316,75.908-46.173,76.05-44.935Z" transform="translate(82.852 996.012)" fill="#fff"/>
        <path id="Path_47" data-name="Path 47" d="M94-43.283v5.717h4.335c4.192,0,4.287-.048,4.145-1.1-.143-.905-.476-1.048-2.858-1.191L96.858-40v-9H94Z" transform="translate(69.761 996.076)" fill="#fff"/>
        <path id="Path_48" data-name="Path 48" d="M115-43.283v5.717h4.287c3.954,0,4.287-.048,4.287-.953,0-.857-.333-.953-3.1-.953h-3.1V-40.9c0-1.429.048-1.429,2.62-1.429,2.287,0,2.62-.1,2.62-.953s-.333-.953-2.62-.953c-2.477,0-2.62-.048-2.62-1.191,0-1.1.191-1.143,3-1.286,2.668-.143,2.954-.238,3.1-1.239S123.527-49,119.335-49H115Z" transform="translate(58.765 996.076)" fill="#fff"/>
        <path id="Path_49" data-name="Path 49" d="M145.476-47.809c0,1.048.191,1.143,2.811,1.286l2.858.143-3.1,3.763A21.81,21.81,0,0,0,145-38.234c0,.524,1.1.667,5,.667,5,0,5,0,5-1.191,0-1.1-.191-1.143-2.906-1.286l-2.954-.143L152.1-43.76c4.1-5.05,4-5.24-1.858-5.24C145.524-49,145.476-49,145.476-47.809Z" transform="translate(43.057 996.076)" fill="#fff"/>
        <path id="Path_50" data-name="Path 50" d="M170-43.283v5.717h4.287c3.954,0,4.287-.1,4.287-.953,0-.762-.381-.905-2.954-1.048-2.858-.143-3-.191-3.144-1.477s-.1-1.286,2.477-1.286c2.334,0,2.668-.1,2.668-.953s-.333-.953-2.62-.953c-2.477,0-2.62-.048-2.62-1.191s.1-1.191,3.1-1.191,3.1-.048,3.1-1.191c0-1.191-.048-1.191-4.287-1.191H170Z" transform="translate(29.966 996.076)" fill="#fff"/>
        <path id="Path_51" data-name="Path 51" d="M193-43.436v5.764h1.191c1.048,0,1.191-.191,1.191-1.667s.143-1.667,1.191-1.667c.81,0,1.524.476,2.239,1.667.81,1.239,1.429,1.667,2.43,1.667,1.572,0,1.572-.143.286-2l-1-1.382,1-1.1a4.02,4.02,0,0,0-.238-5.574c-1-.953-1.81-1.143-4.764-1.286L193-49.2Zm6.669-2.334c.857,1.62-.191,2.858-2.382,2.858-1.906,0-1.906,0-1.906-1.906s0-1.906,1.906-1.906C198.669-46.723,199.288-46.485,199.669-45.77Z" transform="translate(17.923 996.18)" fill="#fff"/>
        <path id="Path_52" data-name="Path 52" d="M219.709-48.512a6.271,6.271,0,0,0-3.382,4.383,5.968,5.968,0,0,0,2.715,5.859,8.413,8.413,0,0,0,6.622,0,6.015,6.015,0,0,0,2.191-7.765C226.521-48.512,222.567-49.7,219.709-48.512Zm5.1,2.715a3.509,3.509,0,0,1,.81,3.859,4.014,4.014,0,0,1-3.478,2.477,4.553,4.553,0,0,1-1.906-1,3.782,3.782,0,0,1-.476-5.1C220.661-46.892,223.71-47.035,224.806-45.8Z" transform="translate(5.744 996.064)" fill="#fff"/>
      </g>
    </g>
  </g>
</svg>
