<svg xmlns="http://www.w3.org/2000/svg" width="63.221" height="37.53" viewBox="0 0 63.221 37.53">
  <g id="Group_3" data-name="Group 3" transform="translate(-8.037)">
    <g id="Group_1" data-name="Group 1" transform="translate(8.037)">
      <path id="Path_41" data-name="Path 41" d="M98.764-177.238a11.642,11.642,0,0,0-7.522,8.787c-.171,1.2-.1,1.47.479,1.778a5.223,5.223,0,0,0,3.316.171,4.016,4.016,0,0,0,1.2-1.47,7.8,7.8,0,0,1,3.829-3.59,9.823,9.823,0,0,1,6.633.1c1.368.615,3.556,2.872,3.556,3.692,0,.684,1.47,1.47,2.8,1.47,1.573,0,2.393-.752,2.12-1.983-.923-4.24-2.667-6.6-6.12-8.308A14.613,14.613,0,0,0,98.764-177.238Z" transform="translate(-71.618 177.881)" fill="#fba30d"/>
      <path id="Path_42" data-name="Path 42" d="M42.718-138.46C37.18-136.99,34-132.75,34-126.8c.034,7.693,5.334,12.65,12.958,12.069,3.829-.274,5.675-1.06,7.932-3.282,2.222-2.257,2.974-4.034,3.351-8.171.239-2.393.444-3.043,1.3-4.069,4.171-5.163,13.436-2.735,13.436,3.487,0,4.479-5.265,7.522-10.018,5.846l-1.3-.479-1.026,2.086a17.574,17.574,0,0,1-1.368,2.5c-.479.581.308,1.06,2.8,1.709A13.671,13.671,0,0,0,73.8-117.365l1.641-1.368,1.47,1.3a11.784,11.784,0,0,0,7.282,2.7c6.12.479,11.043-2.667,12.616-8.069a17.216,17.216,0,0,0-.513-9.334c-2.564-5.812-10.086-8.342-16.65-5.607l-1.2.513,1.3,2.427c1.162,2.188,1.333,2.393,2.12,2.222a13.815,13.815,0,0,1,5.983-.171,8.561,8.561,0,0,1,4.137,3.453,6.694,6.694,0,0,1,0,4.889c-2.051,4.957-10.941,5.231-13.471.376a16.42,16.42,0,0,1-.821-3.932,14.242,14.242,0,0,0-1.128-4.684c-2.257-4.581-7.9-7.043-13.573-5.949-5.71,1.128-8.821,4.752-9.47,11.077a12.2,12.2,0,0,1-.855,3.8c-1.983,3.043-6.8,4.1-10.394,2.291-5.265-2.7-4.342-9.676,1.5-11.317a12.787,12.787,0,0,1,5.778.171c.615.171.889-.171,1.949-2.222l1.265-2.462-1.573-.684A16.755,16.755,0,0,0,42.718-138.46Z" transform="translate(-34 152.197)" fill="#fff"/>
    </g>
  </g>
</svg>
