<svg xmlns="http://www.w3.org/2000/svg" width="21.722" height="22.313" viewBox="0 0 21.722 22.313">
  <g id="sign-out-alt_1_" data-name="sign-out-alt (1)" transform="translate(-0.278 -0.843)">
    <path id="Path_161" data-name="Path 161" d="M10.67,13.946a.93.93,0,0,0-.93.93v2.789a2.789,2.789,0,0,1-2.789,2.789h-2.3a2.789,2.789,0,0,1-2.789-2.789V4.649A2.789,2.789,0,0,1,4.649,1.859h2.3A2.789,2.789,0,0,1,9.74,4.649V7.438a.93.93,0,0,0,1.859,0V4.649A4.654,4.654,0,0,0,6.951,0h-2.3A4.654,4.654,0,0,0,0,4.649V17.665a4.654,4.654,0,0,0,4.649,4.649h2.3A4.654,4.654,0,0,0,11.6,17.665V14.876A.93.93,0,0,0,10.67,13.946Z" transform="translate(0.278 0.843)" fill="#fff"/>
    <path id="Path_162" data-name="Path 162" d="M19.384,8.928,15.692,5.236a.8.8,0,1,0-1.138,1.138l3.431,3.432L5.805,9.83a.805.805,0,0,0,0,1.61h0l12.227-.025L14.552,14.9a.8.8,0,1,0,1.138,1.138l3.692-3.692a2.415,2.415,0,0,0,0-3.415Z" transform="translate(1.91 1.365)" fill="#fff"/>
  </g>
</svg>
